<svg width="277" height="299" viewBox="0 0 277 299" fill="none" xmlns="http://www.w3.org/2000/svg">
<path d="M120.75 -1H132.5L139.5 0.25L146 2L152 4.25L157.75 7.25L161.25 9.5L165.25 12.5L168.75 15.5L173 19.75L175.25 22.5L178 26.25L181 31.25L184 37.5L185.75 42.25L187 47L188 52.5L188.5 55.75L203.25 56L208.75 56.75L214 58.25L219 60.5L222.25 62.5L225.25 64.75L227.75 67L231 70.25L233.75 74L236.25 78.5L238.25 83.5L239.5 88.25L240.75 98.5L246 146.75L250.25 185.75L252.75 208.5L253 212.5V219.5L252.5 226.25L251.25 233.5L249.75 239.5L247.75 245.5L245.5 250.75L243.5 255L239.75 261.25L236.75 265.5L233.5 269.5L231.25 272.25L226.25 277.25L223.5 279.5L221.5 281.25L217 284.5L212.25 287.5L208.25 289.75L201.25 293L195 295.25L188.25 297L180.5 298.5L177 299H78.5L69.25 297.5L62.75 296L54.5 293.25L49.5 291L44.5 288.5L38.5 284.75L34.5 281.75L31.75 279.5L29.25 277.25L22.5 270.5L20.25 267.75L17.75 264.5L14.75 260L12 255.25L9 249.25L6.5 242.75L4.5 235.75L3.25 229.75L2.5 224.5L2.25 221.25V210.75L2.75 204.75L3.25 197L9.25 140.5L14.5 91.75L15.25 87.25L16.75 82L18.75 77.5L20.75 74L24 69.75L28.75 65L33.75 61.5L37.5 59.5L42.75 57.5L48.75 56.25L51.25 56L64.25 55.75L64.75 53.75L65.75 47.75L67.5 41.25L70 35L72.75 29.75L74.5 27L77 23.5L79 21L81.25 18.5L86 13.75L90.25 10.5L94 8L99.5 5L104 3L109.25 1.25L114.5 0L118.5 -0.75L120.75 -1ZM121.75 9L115.25 10L110 11.5L106 13L102 15L98 17.25L94 20.25L90.75 23L87.25 26.5L84.75 29.75L82.5 33L80.25 37L78.75 40L77 44.75L75.75 49L74.75 53.75V56H178L178.25 55L177 48.25L175.5 43.25L173.25 38L170.5 33L168 29.5L165.25 26.25L163.5 24.25L160 21L156 18L151.5 15.25L145.75 12.5L139.75 10.5L135 9.5L131 9H121.75Z" fill="#1B2A4F"/>
<path d="M120.75 -1H132.5L139.5 0.25L146 2L152 4.25L157.75 7.25L161.25 9.5L165.25 12.5L168.75 15.5L173 19.75L175.25 22.5L178 26.25L181 31.25L184 37.5L185.75 42.25L187 47L188 52.5L188.5 55.75L203.25 56L208.75 56.75L214 58.25L219 60.5L222.25 62.5L225.25 64.75L227.75 67L231 70.25L233.75 74L236.25 78.5L238.25 83.5L239.5 88.25L240.75 98.5L246 146.75L250.25 185.75L251.25 195V197.25L250.75 196.25L247.75 187.25L245.75 182.25L242.75 176L239.25 170.25L236.75 166.75L234.25 163.5L232 161L230 158.5L228.75 157.25L225.75 154.5L223 152.25L220 149.75L216 147L212 144.5L207.5 142L202.25 139.5L195.5 137L189.25 135.25L181.5 133.75L177.25 133.25L170.5 133L79.25 133.25L73 134L66.25 135.25L60.5 136.75L54.75 138.75L49 141.25L44.25 143.75L38.75 147.25L35.25 149.75L29.75 154.25L23.25 160.75L21 163.5L18.25 167L14.75 172.25L11.5 177.75L8.25 185L6.25 190.25L3.5 200H3.25V197L9.25 140.5L14.5 91.75L15.25 87.25L16.75 82L18.75 77.5L20.75 74L24 69.75L28.75 65L33.75 61.5L37.5 59.5L42.75 57.5L48.75 56.25L51.25 56L64.25 55.75L64.75 53.75L65.75 47.75L67.5 41.25L70 35L72.75 29.75L74.5 27L77 23.5L79 21L81.25 18.5L86 13.75L90.25 10.5L94 8L99.5 5L104 3L109.25 1.25L114.5 0L118.5 -0.75L120.75 -1ZM121.75 9L115.25 10L110 11.5L106 13L102 15L98 17.25L94 20.25L90.75 23L87.25 26.5L84.75 29.75L82.5 33L80.25 37L78.75 40L77 44.75L75.75 49L74.75 53.75V56H178L178.25 55L177 48.25L175.5 43.25L173.25 38L170.5 33L168 29.5L165.25 26.25L163.5 24.25L160 21L156 18L151.5 15.25L145.75 12.5L139.75 10.5L135 9.5L131 9H121.75Z" fill="#FC9E46"/>
<path d="M164.5 148H173.5L180.5 148.75L187 150L192.75 151.75L197.5 153.75L201.5 155.75L206 158.25L210.25 161.25L213 163.5L216.25 166.25L222 172L224.25 174.75L227 178.5L229.25 182L201 192L173 202L166 227L239 230L233.75 241.5L231.5 246.5L228.75 251.25L226 255.25L223.25 258.75L220.75 261.5L219 263.5L215.5 266.75L212.75 269L208.5 272.25L203.25 275.5L199 277.75L193.5 280L186.75 282L180.25 283.25L175.25 283.75L170.75 284H100.5L100.25 283.75L100 262.5V228L100.5 212L101 206.75L102.25 199.75L104 193.75L106 188.75L108 184.75L110.75 180L114 175.5L117.5 171.25L123.5 165.25L126.25 163L129.5 160.5L134 157.5L138.5 155L142.75 153L149 150.75L155 149.25L161.5 148.25L164.5 148Z" fill="#FDFDFC"/>
<path d="M169.202 175H177.798L183.343 175.732L188.056 176.951L192.492 178.659L196.928 180.854L201.364 183.78L204.692 186.463L206.632 188.171L210.237 192.317L212.455 195.488L214.673 199.39L216.614 204.512L217.723 209.146L218 211.098V219.146L217.168 224.024L215.782 228.171L214.118 232.073L211.9 235.732L209.405 238.902L207.187 241.341L204.137 244.268L201.087 246.707L196.374 249.634L192.215 251.585L187.224 253.293L181.125 254.512L176.688 255H129V211.829L129.832 206.463L131.218 201.829L133.159 197.683L135.931 193.293L138.704 189.878L142.031 186.463L145.636 183.537L149.794 180.854L154.231 178.659L157.28 177.439L162.271 175.976L166.707 175.244L169.202 175Z" fill="#1B2A50"/>
<path d="M120.75 -1H132.5L139.5 0.25L146 2L152 4.25L157.75 7.25L161.25 9.5L165.25 12.5L168.75 15.5L173 19.75L175.25 22.5L178 26.25L181 31.25L184 37.5L185.75 42.25L187 47L188 52.5L188.5 55.75L188.75 60V71.75L188.5 72H178.5L178.25 71.75L178 56.75L177.75 56L178 55L176.75 48.25L175.25 43.25L173 38L170.25 33L167.75 29.5L165 26.25L163.25 24.25L160 21.25L156 18.25L151.5 15.5L145.75 12.75L139.75 10.75L135 9.75L131 9.25H121.75L115.25 10.25L110 11.75L106 13.25L102 15.25L98 17.5L94 20.5L90.75 23.25L87.5 26.5L85 29.75L82.75 33L80.5 37L79 40L77.25 44.75L76 49L75 53.75L74.75 56L75.25 56.25L75 56.5L74.5 72H64.5L64.25 71.75V55.75L64.75 53.75L65.75 47.75L67.5 41.25L70 35L72.75 29.75L74.5 27L77 23.5L79 21L81.25 18.5L86 13.75L90.25 10.5L94 8L99.5 5L104 3L109.25 1.25L114.5 0L118.5 -0.75L120.75 -1Z" fill="#1B2A50"/>
<path d="M62 72H77.25L79.5 72.5L81 73.5L82 75L82.25 76V77.75L81.5 79.75L79.5 81.5L79 81.75L75.5 82H64L61 81.75L59.25 80.75L58.25 79.5L57.75 78.25V75.5L58.5 74L60 72.75L62 72Z" fill="#FEFEFE"/>
<path d="M176 72H191L194 72.75L195.25 73.75L196 75L196.25 77.5L195.5 79.75L193.5 81.5L192.75 81.75L187.5 82H177L174.25 81.5L172.5 80L171.75 78.25L171.5 76.5L172.25 74.25L174 72.75L176 72Z" fill="#FEFEFE"/>
<path d="M214.68 232.091L180 233.273V225L235 226L231 238" stroke="white" stroke-width="10"/>
</svg>
