<svg width="936" height="299" viewBox="0 0 936 299" fill="none" xmlns="http://www.w3.org/2000/svg">
<path d="M120.75 -1H132.5L139.5 0.25L146 2L152 4.25L157.75 7.25L161.25 9.5L165.25 12.5L168.75 15.5L173 19.75L175.25 22.5L178 26.25L181 31.25L184 37.5L185.75 42.25L187 47L188 52.5L188.5 55.75L203.25 56L208.75 56.75L214 58.25L219 60.5L222.25 62.5L225.25 64.75L227.75 67L231 70.25L233.75 74L236.25 78.5L238.25 83.5L239.5 88.25L240.75 98.5L246 146.75L250.25 185.75L252.75 208.5L253 212.5V219.5L252.5 226.25L251.25 233.5L249.75 239.5L247.75 245.5L245.5 250.75L243.5 255L239.75 261.25L236.75 265.5L233.5 269.5L231.25 272.25L226.25 277.25L223.5 279.5L221.5 281.25L217 284.5L212.25 287.5L208.25 289.75L201.25 293L195 295.25L188.25 297L180.5 298.5L177 299H78.5L69.25 297.5L62.75 296L54.5 293.25L49.5 291L44.5 288.5L38.5 284.75L34.5 281.75L31.75 279.5L29.25 277.25L22.5 270.5L20.25 267.75L17.75 264.5L14.75 260L12 255.25L9 249.25L6.5 242.75L4.5 235.75L3.25 229.75L2.5 224.5L2.25 221.25V210.75L2.75 204.75L3.25 197L9.25 140.5L14.5 91.75L15.25 87.25L16.75 82L18.75 77.5L20.75 74L24 69.75L28.75 65L33.75 61.5L37.5 59.5L42.75 57.5L48.75 56.25L51.25 56L64.25 55.75L64.75 53.75L65.75 47.75L67.5 41.25L70 35L72.75 29.75L74.5 27L77 23.5L79 21L81.25 18.5L86 13.75L90.25 10.5L94 8L99.5 5L104 3L109.25 1.25L114.5 0L118.5 -0.75L120.75 -1ZM121.75 9L115.25 10L110 11.5L106 13L102 15L98 17.25L94 20.25L90.75 23L87.25 26.5L84.75 29.75L82.5 33L80.25 37L78.75 40L77 44.75L75.75 49L74.75 53.75V56H178L178.25 55L177 48.25L175.5 43.25L173.25 38L170.5 33L168 29.5L165.25 26.25L163.5 24.25L160 21L156 18L151.5 15.25L145.75 12.5L139.75 10.5L135 9.5L131 9H121.75Z" fill="#1B2A4F"/>
<path d="M120.75 -1H132.5L139.5 0.25L146 2L152 4.25L157.75 7.25L161.25 9.5L165.25 12.5L168.75 15.5L173 19.75L175.25 22.5L178 26.25L181 31.25L184 37.5L185.75 42.25L187 47L188 52.5L188.5 55.75L203.25 56L208.75 56.75L214 58.25L219 60.5L222.25 62.5L225.25 64.75L227.75 67L231 70.25L233.75 74L236.25 78.5L238.25 83.5L239.5 88.25L240.75 98.5L246 146.75L250.25 185.75L251.25 195V197.25L250.75 196.25L247.75 187.25L245.75 182.25L242.75 176L239.25 170.25L236.75 166.75L234.25 163.5L232 161L230 158.5L228.75 157.25L225.75 154.5L223 152.25L220 149.75L216 147L212 144.5L207.5 142L202.25 139.5L195.5 137L189.25 135.25L181.5 133.75L177.25 133.25L170.5 133L79.25 133.25L73 134L66.25 135.25L60.5 136.75L54.75 138.75L49 141.25L44.25 143.75L38.75 147.25L35.25 149.75L29.75 154.25L23.25 160.75L21 163.5L18.25 167L14.75 172.25L11.5 177.75L8.25 185L6.25 190.25L3.5 200H3.25V197L9.25 140.5L14.5 91.75L15.25 87.25L16.75 82L18.75 77.5L20.75 74L24 69.75L28.75 65L33.75 61.5L37.5 59.5L42.75 57.5L48.75 56.25L51.25 56L64.25 55.75L64.75 53.75L65.75 47.75L67.5 41.25L70 35L72.75 29.75L74.5 27L77 23.5L79 21L81.25 18.5L86 13.75L90.25 10.5L94 8L99.5 5L104 3L109.25 1.25L114.5 0L118.5 -0.75L120.75 -1ZM121.75 9L115.25 10L110 11.5L106 13L102 15L98 17.25L94 20.25L90.75 23L87.25 26.5L84.75 29.75L82.5 33L80.25 37L78.75 40L77 44.75L75.75 49L74.75 53.75V56H178L178.25 55L177 48.25L175.5 43.25L173.25 38L170.5 33L168 29.5L165.25 26.25L163.5 24.25L160 21L156 18L151.5 15.25L145.75 12.5L139.75 10.5L135 9.5L131 9H121.75Z" fill="#FC9E46"/>
<path d="M164.5 148H173.5L180.5 148.75L187 150L192.75 151.75L197.5 153.75L201.5 155.75L206 158.25L210.25 161.25L213 163.5L216.25 166.25L222 172L224.25 174.75L227 178.5L229.25 182L201 192L173 202L166 227L239 230L233.75 241.5L231.5 246.5L228.75 251.25L226 255.25L223.25 258.75L220.75 261.5L219 263.5L215.5 266.75L212.75 269L208.5 272.25L203.25 275.5L199 277.75L193.5 280L186.75 282L180.25 283.25L175.25 283.75L170.75 284H100.5L100.25 283.75L100 262.5V228L100.5 212L101 206.75L102.25 199.75L104 193.75L106 188.75L108 184.75L110.75 180L114 175.5L117.5 171.25L123.5 165.25L126.25 163L129.5 160.5L134 157.5L138.5 155L142.75 153L149 150.75L155 149.25L161.5 148.25L164.5 148Z" fill="#FDFDFC"/>
<path d="M169.202 175H177.798L183.343 175.732L188.056 176.951L192.492 178.659L196.928 180.854L201.364 183.78L204.692 186.463L206.632 188.171L210.237 192.317L212.455 195.488L214.673 199.39L216.614 204.512L217.723 209.146L218 211.098V219.146L217.168 224.024L215.782 228.171L214.118 232.073L211.9 235.732L209.405 238.902L207.187 241.341L204.137 244.268L201.087 246.707L196.374 249.634L192.215 251.585L187.224 253.293L181.125 254.512L176.688 255H129V211.829L129.832 206.463L131.218 201.829L133.159 197.683L135.931 193.293L138.704 189.878L142.031 186.463L145.636 183.537L149.794 180.854L154.231 178.659L157.28 177.439L162.271 175.976L166.707 175.244L169.202 175Z" fill="#1B2A50"/>
<path d="M120.75 -1H132.5L139.5 0.25L146 2L152 4.25L157.75 7.25L161.25 9.5L165.25 12.5L168.75 15.5L173 19.75L175.25 22.5L178 26.25L181 31.25L184 37.5L185.75 42.25L187 47L188 52.5L188.5 55.75L188.75 60V71.75L188.5 72H178.5L178.25 71.75L178 56.75L177.75 56L178 55L176.75 48.25L175.25 43.25L173 38L170.25 33L167.75 29.5L165 26.25L163.25 24.25L160 21.25L156 18.25L151.5 15.5L145.75 12.75L139.75 10.75L135 9.75L131 9.25H121.75L115.25 10.25L110 11.75L106 13.25L102 15.25L98 17.5L94 20.5L90.75 23.25L87.5 26.5L85 29.75L82.75 33L80.5 37L79 40L77.25 44.75L76 49L75 53.75L74.75 56L75.25 56.25L75 56.5L74.5 72H64.5L64.25 71.75V55.75L64.75 53.75L65.75 47.75L67.5 41.25L70 35L72.75 29.75L74.5 27L77 23.5L79 21L81.25 18.5L86 13.75L90.25 10.5L94 8L99.5 5L104 3L109.25 1.25L114.5 0L118.5 -0.75L120.75 -1Z" fill="#1B2A50"/>
<path d="M62 72H77.25L79.5 72.5L81 73.5L82 75L82.25 76V77.75L81.5 79.75L79.5 81.5L79 81.75L75.5 82H64L61 81.75L59.25 80.75L58.25 79.5L57.75 78.25V75.5L58.5 74L60 72.75L62 72Z" fill="#FEFEFE"/>
<path d="M176 72H191L194 72.75L195.25 73.75L196 75L196.25 77.5L195.5 79.75L193.5 81.5L192.75 81.75L187.5 82H177L174.25 81.5L172.5 80L171.75 78.25L171.5 76.5L172.25 74.25L174 72.75L176 72Z" fill="#FEFEFE"/>
<path d="M214.68 232.091L180 233.273V225L235 226L231 238" stroke="white" stroke-width="10"/>
<path d="M271.047 197.472C273.768 188.67 278.352 180.784 284.797 173.816C291.385 166.663 299.693 162.996 309.719 162.812H390.5C394.51 162.812 397.876 164.646 400.598 168.314C403.462 171.798 404.895 176.108 404.895 181.243C404.895 186.378 403.462 190.779 400.598 194.447C397.876 197.931 394.51 199.673 390.5 199.673H308.859C306.138 199.673 303.775 201.14 301.77 204.074C299.764 206.825 298.189 210.126 297.043 213.977C296.04 217.828 295.539 221.496 295.539 224.981V273.12C294.68 284.123 289.953 290.083 281.359 291C277.349 291 273.84 289.35 270.832 286.049C267.967 282.564 266.535 278.255 266.535 273.12V225.256H266.75C266.75 215.72 268.182 206.458 271.047 197.472Z" fill="#1B2950"/>
<path d="M546.262 273.12V206.825C546.262 202.241 544.4 199.857 540.676 199.673H465.48C462.759 199.857 460.396 201.415 458.391 204.35C456.385 207.1 454.882 210.401 453.879 214.252C453.02 217.92 452.59 221.68 452.59 225.531C452.59 229.198 453.02 232.958 453.879 236.809C454.882 240.477 456.385 243.778 458.391 246.712C460.396 249.463 462.759 250.838 465.48 250.838H520.48C524.491 250.838 527.857 252.672 530.578 256.34C533.443 259.824 534.875 264.134 534.875 269.269C534.875 274.403 533.443 278.713 530.578 282.197C527.857 285.865 524.491 287.699 520.48 287.699H466.34C456.314 287.516 448.007 283.94 441.418 276.971C434.973 269.819 430.318 261.841 427.453 253.039C424.732 244.053 423.371 234.792 423.371 225.256C423.371 216.086 424.803 207.1 427.668 198.298C430.533 189.312 435.188 181.334 441.633 174.366C448.078 167.214 457.603 163.362 470.207 162.812H560.441C564.452 162.812 567.889 164.554 570.754 168.039C573.618 171.34 575.122 175.558 575.266 180.693V273.12C575.266 278.255 573.762 282.564 570.754 286.049C567.889 289.35 564.452 291 560.441 291C551.848 290.083 547.121 284.123 546.262 273.12Z" fill="#1B2950"/>
<path d="M722.648 138.88C723.508 127.877 728.234 121.917 736.828 121C740.839 121 744.276 122.742 747.141 126.227C750.148 129.528 751.652 133.745 751.652 138.88V269.819C751.509 274.954 750.005 279.263 747.141 282.748C744.276 286.049 740.839 287.699 736.828 287.699H646.594C633.99 287.149 624.465 283.389 618.02 276.421C611.574 269.269 606.919 261.291 604.055 252.489C601.19 243.503 599.758 234.425 599.758 225.256C599.758 215.72 601.118 206.55 603.84 197.748C606.704 188.762 611.359 180.784 617.805 173.816C624.393 166.663 632.701 162.996 642.727 162.812H696.867C700.878 162.812 704.243 164.646 706.965 168.314C709.829 171.798 711.262 176.108 711.262 181.243C711.262 186.378 709.829 190.779 706.965 194.447C704.243 197.931 700.878 199.673 696.867 199.673H641.867C639.146 199.673 636.783 201.14 634.777 204.074C632.772 206.825 631.268 210.126 630.266 213.977C629.406 217.645 628.977 221.313 628.977 224.981C628.977 228.832 629.406 232.683 630.266 236.534C631.268 240.202 632.772 243.503 634.777 246.437C636.783 249.188 639.146 250.655 641.867 250.838H717.062C720.786 250.655 722.648 248.271 722.648 243.686V138.88Z" fill="#1B2950"/>
<path d="M825.559 158.686C830.572 158.686 835.441 159.786 840.168 161.987C845.038 164.188 849.693 167.397 854.133 171.615C854.849 172.532 855.637 173.449 856.496 174.366C857.212 173.449 858 172.532 858.859 171.615C863.299 167.397 867.883 164.188 872.609 161.987C877.479 159.786 882.349 158.686 887.219 158.686C892.232 158.686 897.102 159.786 901.828 161.987C906.698 164.188 911.281 167.489 915.578 171.89C920.018 176.108 923.885 181.793 927.18 188.945C930.617 196.097 932.336 204.625 932.336 214.528V273.12C931.477 284.123 926.75 290.083 918.156 291C914.146 291 910.637 289.35 907.629 286.049C904.764 282.564 903.332 278.255 903.332 273.12V216.728C903.332 212.327 902.688 208.659 901.398 205.725C900.109 202.607 898.677 200.223 897.102 198.573C895.526 196.739 893.879 195.455 892.16 194.722C890.441 193.805 888.723 193.346 887.004 193.346C885.285 193.346 883.566 193.805 881.848 194.722C880.272 195.455 878.697 196.739 877.121 198.573C875.546 200.223 874.113 202.607 872.824 205.725C871.535 208.659 870.819 212.327 870.676 216.728V273.12C869.816 284.123 865.09 290.083 856.496 291C852.486 291 848.977 289.35 845.969 286.049C843.104 282.564 841.672 278.255 841.672 273.12V216.728C841.672 212.327 841.027 208.659 839.738 205.725C838.449 202.607 837.017 200.223 835.441 198.573C833.866 196.739 832.219 195.455 830.5 194.722C828.781 193.805 827.062 193.346 825.344 193.346C823.625 193.346 821.906 193.805 820.188 194.722C818.612 195.455 817.036 196.739 815.461 198.573C813.885 200.223 812.453 202.607 811.164 205.725C809.875 208.659 809.159 212.327 809.016 216.728V273.12C808.299 284.123 803.645 290.083 795.051 291C791.04 291 787.531 289.35 784.523 286.049C781.659 282.564 780.227 278.255 780.227 273.12V214.528C780.513 204.625 782.303 196.097 785.598 188.945C788.892 181.793 792.759 176.108 797.199 171.89C801.639 167.489 806.223 164.188 810.949 161.987C815.819 159.786 820.689 158.686 825.559 158.686Z" fill="#1B2950"/>
<path d="M782.325 153L784.415 134.74C784.415 133.713 784.158 132.87 783.645 132.21C783.168 131.513 782.307 131.165 781.06 131.165C779.813 131.165 778.787 131.77 777.98 132.98C777.173 134.153 776.66 135.4 776.44 136.72C775.157 145.85 774.442 151.277 774.295 153H766.925L769.95 127.15C771.49 126.747 772.663 126.545 773.47 126.545C775.78 126.545 777.045 127.315 777.265 128.855C779.062 127.315 781.023 126.545 783.15 126.545C787.403 126.545 790.117 127.81 791.29 130.34C793.087 127.773 795.653 126.49 798.99 126.49C801.447 126.49 803.39 127.132 804.82 128.415C806.25 129.662 806.965 131.238 806.965 133.145C806.965 133.695 806.855 134.667 806.635 136.06C805.792 141.56 805.37 144.787 805.37 145.74C805.37 147.463 805.938 148.325 807.075 148.325C808.028 148.325 809.037 147.702 810.1 146.455C811.2 145.172 812.08 143.21 812.74 140.57C813.987 141.89 814.738 142.935 814.995 143.705C813.088 150.085 809.715 153.275 804.875 153.275C802.602 153.275 800.915 152.578 799.815 151.185C798.715 149.792 798.165 148.325 798.165 146.785L799.485 134.63C799.485 133.64 799.228 132.815 798.715 132.155C798.202 131.495 797.377 131.165 796.24 131.165C795.14 131.165 794.168 131.587 793.325 132.43C792.482 133.273 791.895 134.355 791.565 135.675C790.465 144.988 789.75 150.763 789.42 153H782.325ZM835.494 153.275C832.121 153.275 829.884 152.102 828.784 149.755C826.877 152.138 824.421 153.33 821.414 153.33C818.444 153.33 815.932 152.322 813.879 150.305C811.862 148.288 810.854 145.63 810.854 142.33C810.854 137.527 812.266 133.695 815.089 130.835C817.912 127.975 821.487 126.545 825.814 126.545C825.924 126.545 826.034 126.545 826.144 126.545C827.977 126.545 829.664 126.857 831.204 127.48C832.194 126.857 833.386 126.545 834.779 126.545C836.209 126.545 837.236 126.728 837.859 127.095C837.529 129.808 837.181 132.485 836.814 135.125C836.447 137.728 836.191 139.58 836.044 140.68C835.714 143.173 835.549 144.97 835.549 146.07C835.549 147.537 836.136 148.27 837.309 148.27C838.226 148.27 839.197 147.665 840.224 146.455C841.251 145.208 842.149 143.265 842.919 140.625C843.982 141.578 844.716 142.642 845.119 143.815C844.056 147.298 842.626 149.755 840.829 151.185C839.032 152.578 837.254 153.275 835.494 153.275ZM826.639 130.835C824.292 130.835 822.422 131.733 821.029 133.53C819.672 135.29 818.866 137.93 818.609 141.45C818.572 141.78 818.554 142.092 818.554 142.385C818.554 144.182 818.976 145.612 819.819 146.675C820.699 147.738 821.817 148.27 823.174 148.27C825.484 148.27 827.226 146.638 828.399 143.375L829.719 131.495C828.656 131.055 827.629 130.835 826.639 130.835ZM857.376 133.75C857.376 132.137 856.624 131.33 855.121 131.33C853.654 131.33 852.481 132.283 851.601 134.19C855.561 137.307 857.541 140.808 857.541 144.695C857.541 147.518 856.753 149.663 855.176 151.13C853.599 152.597 851.619 153.33 849.236 153.33C846.853 153.33 845.111 152.597 844.011 151.13C842.911 149.627 842.361 147.738 842.361 145.465C842.361 144.768 842.379 144.255 842.416 143.925L844.341 127.15C845.661 126.747 846.999 126.545 848.356 126.545C850.593 126.545 851.711 127.37 851.711 129.02V129.13C853.178 127.407 855.048 126.545 857.321 126.545C858.971 126.545 860.254 126.93 861.171 127.7C862.088 128.433 862.546 129.423 862.546 130.67C862.546 131.917 862.069 132.943 861.116 133.75C860.199 134.52 858.989 134.905 857.486 134.905C857.413 134.905 857.339 134.905 857.266 134.905C857.339 134.502 857.376 134.117 857.376 133.75ZM853.966 144.42C853.966 142.293 852.866 140.167 850.666 138.04C850.006 143.32 849.676 145.978 849.676 146.015C849.676 147.555 850.299 148.325 851.546 148.325C853.159 148.325 853.966 147.023 853.966 144.42ZM888.732 133.2C888.732 137.013 886.459 139.928 881.912 141.945C882.022 142.605 882.187 143.393 882.407 144.31C883.067 147.023 884.167 148.417 885.707 148.49C885.817 148.49 885.927 148.49 886.037 148.49C888.97 148.49 891.152 145.905 892.582 140.735C893.352 141.432 894.085 142.477 894.782 143.87C894.269 145.85 893.535 147.518 892.582 148.875C891.665 150.232 890.657 151.203 889.557 151.79C887.614 152.817 885.78 153.33 884.057 153.33C880.024 153.33 877.2 151.075 875.587 146.565C874.964 144.768 874.542 142.935 874.322 141.065C876.412 140.552 878.062 139.708 879.272 138.535C880.482 137.325 881.087 136.042 881.087 134.685C881.087 132.338 879.914 131.165 877.567 131.165C876.284 131.165 875.184 131.66 874.267 132.65C873.35 133.603 872.745 134.758 872.452 136.115C872.232 137.985 871.865 140.937 871.352 144.97C870.875 148.967 870.564 151.643 870.417 153H863.102C865.742 130.523 867.337 116.718 867.887 111.585C868.657 111.292 869.702 111.145 871.022 111.145C873.882 111.145 875.312 111.988 875.312 113.675V114.005C874.579 120.642 873.9 125.72 873.277 129.24C875.294 127.37 877.824 126.435 880.867 126.435C883.14 126.435 885.01 127.022 886.477 128.195C887.98 129.368 888.732 131.037 888.732 133.2ZM901.332 140.68C903.605 140.203 905.292 139.287 906.392 137.93C907.529 136.573 908.097 135.272 908.097 134.025C908.097 132.742 907.749 131.88 907.052 131.44C906.392 130.963 905.659 130.725 904.852 130.725C903.129 130.725 901.607 131.697 900.287 133.64C899.004 135.547 898.362 137.838 898.362 140.515C898.362 143.155 898.985 145.135 900.232 146.455C901.515 147.738 903.092 148.38 904.962 148.38C907.712 148.38 910.352 147.427 912.882 145.52C915.412 143.613 917.465 141.12 919.042 138.04C919.849 138.81 920.582 139.763 921.242 140.9C920.032 143.65 917.887 146.345 914.807 148.985C913.267 150.268 911.434 151.313 909.307 152.12C907.217 152.927 905.054 153.33 902.817 153.33C899.15 153.33 896.254 152.212 894.127 149.975C891.854 147.555 890.717 144.457 890.717 140.68C890.717 136.903 892.129 133.603 894.952 130.78C897.812 127.957 901.222 126.545 905.182 126.545C908.005 126.545 910.297 127.168 912.057 128.415C913.817 129.625 914.715 131.275 914.752 133.365C914.752 136.188 913.615 138.48 911.342 140.24C909.105 142 906.025 143.228 902.102 143.925L901.332 140.68ZM929.152 114.72C929.152 114.94 928.657 118.882 927.667 126.545H935.752V130.78H927.117L926.952 132.155C931.242 135.748 933.387 139.672 933.387 143.925C933.387 147.262 932.526 149.663 930.802 151.13C929.116 152.597 927.081 153.33 924.697 153.33C922.314 153.33 920.572 152.707 919.472 151.46C918.372 150.177 917.822 148.637 917.822 146.84C917.822 146.437 917.859 145.997 917.932 145.52L919.637 130.89L919.417 130.78H914.962C914.926 130.413 914.907 129.827 914.907 129.02C914.907 128.177 915.072 127.352 915.402 126.545H920.132L921.892 111.585C922.662 111.292 923.689 111.145 924.972 111.145C927.759 111.145 929.152 112.337 929.152 114.72ZM929.702 143.87C929.702 141.34 928.602 138.847 926.402 136.39C925.742 141.853 925.412 145.007 925.412 145.85C925.412 147.5 925.944 148.325 927.007 148.325C927.777 148.325 928.419 147.977 928.932 147.28C929.446 146.547 929.702 145.41 929.702 143.87Z" fill="#FF9F43"/>
</svg>
