<svg width="16" height="16" viewBox="0 0 16 16" fill="none" xmlns="http://www.w3.org/2000/svg">
<path d="M6.66667 2.33334C5.70867 2.33334 4.94667 3.08734 4.94667 4.00001C4.94667 4.91267 5.70933 5.66667 6.66667 5.66667C7.624 5.66667 8.386 4.91267 8.386 4.00001C8.386 3.08734 7.624 2.33334 6.666 2.33334M4.28 4.00001C4.28 2.70334 5.35667 1.66667 6.66667 1.66667C7.976 1.66667 9.05267 2.70334 9.05267 4.00001C9.05267 5.29667 7.976 6.33334 6.666 6.33334C5.35733 6.33334 4.28133 5.29667 4.28133 4.00001M5.072 7.83734C4.92667 7.744 4.78533 7.71734 4.682 7.74534C4.58422 7.77201 4.48667 7.80089 4.38933 7.83201L3.73333 8.04267C3.48397 8.11975 3.25599 8.25387 3.06748 8.43439C2.87898 8.61491 2.73512 8.83687 2.64733 9.08267C2.62733 9.14267 2.614 9.21201 2.60467 9.30067L2.34467 11.764L2.344 11.77C2.284 12.194 2.512 12.5533 2.89333 12.642C3.62467 12.8113 4.84667 13 6.668 13C6.75641 13 6.84119 13.0351 6.9037 13.0976C6.96621 13.1601 7.00133 13.2449 7.00133 13.3333C7.00133 13.4217 6.96621 13.5065 6.9037 13.569C6.84119 13.6316 6.75641 13.6667 6.668 13.6667C4.80133 13.6667 3.528 13.4733 2.74267 13.2913C1.978 13.114 1.58467 12.3947 1.68267 11.682L1.942 9.23067C1.95333 9.12134 1.97267 8.99401 2.01733 8.86467C2.13901 8.52107 2.33907 8.21053 2.60163 7.95769C2.8642 7.70485 3.18205 7.51664 3.53 7.40801L4.186 7.19734C4.29178 7.16356 4.398 7.13201 4.50467 7.10267C4.85133 7.00734 5.19 7.12001 5.434 7.27801C5.69667 7.44734 6.13067 7.65734 6.66733 7.65734C7.204 7.65734 7.63867 7.44734 7.90133 7.27734C8.146 7.12001 8.484 7.00734 8.83067 7.10267C8.93733 7.13245 9.04356 7.164 9.14933 7.19734L9.806 7.40801C9.84872 7.42048 9.8885 7.44138 9.92301 7.46948C9.95752 7.49757 9.98606 7.5323 10.0069 7.5716C10.0278 7.6109 10.0406 7.65398 10.0446 7.6983C10.0485 7.74263 10.0436 7.7873 10.03 7.82967C10.0164 7.87205 9.99449 7.91128 9.96551 7.94505C9.93653 7.97882 9.90108 8.00645 9.86125 8.0263C9.82143 8.04615 9.77803 8.05783 9.73362 8.06064C9.6892 8.06345 9.64468 8.05734 9.60267 8.04267L8.946 7.83267C8.84955 7.80156 8.75222 7.77267 8.654 7.74601C8.55 7.71734 8.40933 7.74334 8.26333 7.83734C7.93733 8.04867 7.37733 8.32401 6.668 8.32401C5.958 8.32401 5.398 8.04867 5.072 7.83734Z" fill="#B3B3B3"/>
<path d="M10.4267 8.77333C10.4383 8.65239 10.4948 8.54018 10.585 8.45876C10.6751 8.37734 10.7925 8.3326 10.914 8.33333H11.752C11.8736 8.33243 11.9911 8.3771 12.0815 8.45854C12.1718 8.53997 12.2283 8.65227 12.24 8.77333C12.252 8.91133 12.358 9.05866 12.5487 9.15599C12.586 9.1751 12.6231 9.1951 12.66 9.21599C12.8693 9.33599 13.074 9.35799 13.222 9.29199C13.3312 9.24273 13.4547 9.23491 13.5693 9.26999C13.6838 9.30508 13.7817 9.38067 13.8447 9.48266L14.2633 10.1707C14.3277 10.2765 14.3484 10.4033 14.3209 10.5242C14.2934 10.645 14.2199 10.7504 14.116 10.818C13.996 10.8967 13.914 11.07 13.9167 11.3013V11.3653C13.9133 11.5967 13.9967 11.77 14.116 11.8487C14.2199 11.9162 14.2934 12.0216 14.3209 12.1425C14.3484 12.2633 14.3277 12.3901 14.2633 12.496L13.8447 13.184C13.7817 13.286 13.6838 13.3616 13.5693 13.3967C13.4547 13.4317 13.3312 13.4239 13.222 13.3747C13.074 13.3087 12.8693 13.3307 12.66 13.4507C12.6236 13.4711 12.5864 13.4911 12.5487 13.5107C12.358 13.608 12.252 13.7553 12.24 13.8933C12.2283 14.0144 12.1718 14.1267 12.0815 14.2081C11.9911 14.2895 11.8736 14.3342 11.752 14.3333H10.9133C10.7918 14.3341 10.6745 14.2893 10.5843 14.2079C10.4941 14.1265 10.4376 14.0143 10.426 13.8933C10.4133 13.7553 10.3073 13.608 10.1167 13.5107C10.0793 13.4915 10.0424 13.4715 10.006 13.4507C9.796 13.3307 9.59133 13.3087 9.44333 13.3747C9.33409 13.4239 9.21066 13.4317 9.09607 13.3967C8.98149 13.3616 8.88359 13.286 8.82067 13.184L8.402 12.496C8.33765 12.39 8.31711 12.2632 8.34474 12.1423C8.37237 12.0215 8.44599 11.9161 8.55 11.8487C8.67 11.77 8.752 11.5967 8.74867 11.3653V11.3013C8.752 11.07 8.66933 10.8967 8.55 10.818C8.44599 10.7505 8.37237 10.6452 8.34474 10.5243C8.31711 10.4035 8.33765 10.2766 8.402 10.1707L8.82067 9.48266C8.88359 9.38067 8.98149 9.30508 9.09607 9.26999C9.21066 9.23491 9.33409 9.24273 9.44333 9.29199C9.59133 9.35799 9.79667 9.33599 10.006 9.21599C10.0424 9.19555 10.0793 9.17555 10.1167 9.15599C10.3073 9.05866 10.4133 8.91133 10.426 8.77333M11.0607 8.99999C10.9687 9.35066 10.7 9.60733 10.4193 9.74999L10.3367 9.79466C10.054 9.95666 9.68067 10.058 9.31533 9.95266L9.05867 10.374C9.326 10.6287 9.41933 10.9967 9.41533 11.31V11.3567C9.41933 11.67 9.326 12.038 9.05867 12.2927L9.31533 12.714C9.68067 12.6087 10.054 12.71 10.3367 12.872C10.3633 12.8871 10.3909 12.902 10.4193 12.9167C10.6993 13.0593 10.9687 13.3167 11.0607 13.6667H11.604C11.696 13.316 11.9653 13.0593 12.2453 12.9167L12.328 12.872C12.6107 12.71 12.9847 12.6087 13.35 12.714L13.606 12.2927C13.3387 12.038 13.2453 11.67 13.2493 11.3567V11.31C13.2453 10.9967 13.3387 10.6287 13.606 10.374L13.35 9.95266C12.984 10.058 12.6107 9.95666 12.328 9.79466L12.2453 9.74999C11.9653 9.60733 11.696 9.34999 11.604 8.99999H11.0607ZM11.86 11.062C11.6973 10.7953 11.3227 10.692 11.0233 10.8553C10.734 11.0147 10.65 11.3487 10.8047 11.6047C10.9673 11.8713 11.342 11.9747 11.6413 11.8113C11.9307 11.652 12.0147 11.318 11.86 11.062ZM10.7033 10.2713C11.3013 9.94399 12.0733 10.1313 12.4293 10.7153C12.792 11.3107 12.5687 12.0633 11.9613 12.3953C11.3633 12.7227 10.5913 12.5353 10.2353 11.9513C9.87333 11.356 10.096 10.6033 10.7033 10.2713Z" fill="#B3B3B3"/>
</svg>
